<mxfile host="app.diagrams.net" agent="Mozilla/5.0 (X11; Linux x86_64; rv:128.0) Gecko/20100101 Firefox/128.0" version="26.0.8">
  <diagram name="Page-1" id="3gi1nS7vsmV4F8YZXKVb">
    <mxGraphModel dx="1434" dy="822" grid="1" gridSize="10" guides="1" tooltips="1" connect="1" arrows="1" fold="1" page="1" pageScale="1" pageWidth="850" pageHeight="1100" math="0" shadow="0">
      <root>
        <mxCell id="0" />
        <mxCell id="1" parent="0" />
        <mxCell id="rUi8ACZ_J-OnOB1ExPda-3" value="&lt;font style=&quot;font-size: 36px; color: rgb(255, 255, 255);&quot; face=&quot;Times New Roman&quot;&gt;1&lt;/font&gt;" style="ellipse;whiteSpace=wrap;html=1;aspect=fixed;fillColor=#000000;" vertex="1" parent="1">
          <mxGeometry x="80" y="240" width="50" height="50" as="geometry" />
        </mxCell>
        <mxCell id="rUi8ACZ_J-OnOB1ExPda-4" value="&lt;font style=&quot;font-size: 36px;&quot; face=&quot;Times New Roman&quot;&gt;Same Architecture&lt;br&gt;&lt;/font&gt;" style="text;html=1;align=center;verticalAlign=middle;whiteSpace=wrap;rounded=0;" vertex="1" parent="1">
          <mxGeometry x="140" y="250" width="180" height="30" as="geometry" />
        </mxCell>
        <mxCell id="rUi8ACZ_J-OnOB1ExPda-6" value="&lt;font style=&quot;font-size: 36px; color: rgb(255, 255, 255);&quot; face=&quot;Times New Roman&quot;&gt;2&lt;/font&gt;" style="ellipse;whiteSpace=wrap;html=1;aspect=fixed;fillColor=#000000;" vertex="1" parent="1">
          <mxGeometry x="390" y="240" width="50" height="50" as="geometry" />
        </mxCell>
        <mxCell id="rUi8ACZ_J-OnOB1ExPda-7" value="&lt;font style=&quot;font-size: 36px;&quot; face=&quot;Times New Roman&quot;&gt;Smaller Block&lt;/font&gt;" style="text;html=1;align=center;verticalAlign=middle;whiteSpace=wrap;rounded=0;" vertex="1" parent="1">
          <mxGeometry x="450" y="250" width="210" height="30" as="geometry" />
        </mxCell>
        <mxCell id="rUi8ACZ_J-OnOB1ExPda-8" value="&lt;font style=&quot;font-size: 36px; color: rgb(255, 255, 255);&quot; face=&quot;Times New Roman&quot;&gt;3&lt;/font&gt;" style="ellipse;whiteSpace=wrap;html=1;aspect=fixed;fillColor=#000000;" vertex="1" parent="1">
          <mxGeometry x="730" y="240" width="50" height="50" as="geometry" />
        </mxCell>
        <mxCell id="rUi8ACZ_J-OnOB1ExPda-9" value="&lt;font style=&quot;font-size: 36px;&quot; face=&quot;Times New Roman&quot;&gt;Skip&lt;/font&gt;" style="text;html=1;align=center;verticalAlign=middle;whiteSpace=wrap;rounded=0;" vertex="1" parent="1">
          <mxGeometry x="790" y="250" width="60" height="30" as="geometry" />
        </mxCell>
        <mxCell id="rUi8ACZ_J-OnOB1ExPda-18" style="edgeStyle=orthogonalEdgeStyle;curved=1;rounded=0;orthogonalLoop=1;jettySize=auto;html=1;exitX=1;exitY=0.5;exitDx=0;exitDy=0;entryX=0;entryY=0.5;entryDx=0;entryDy=0;strokeWidth=1;" edge="1" parent="1" source="rUi8ACZ_J-OnOB1ExPda-10" target="rUi8ACZ_J-OnOB1ExPda-12">
          <mxGeometry relative="1" as="geometry" />
        </mxCell>
        <mxCell id="rUi8ACZ_J-OnOB1ExPda-10" value="" style="rounded=1;whiteSpace=wrap;html=1;fillColor=none;" vertex="1" parent="1">
          <mxGeometry x="70" y="220" width="260" height="90" as="geometry" />
        </mxCell>
        <mxCell id="rUi8ACZ_J-OnOB1ExPda-19" style="edgeStyle=orthogonalEdgeStyle;curved=1;rounded=0;orthogonalLoop=1;jettySize=auto;html=1;exitX=1;exitY=0.5;exitDx=0;exitDy=0;entryX=0;entryY=0.5;entryDx=0;entryDy=0;strokeWidth=1;" edge="1" parent="1" source="rUi8ACZ_J-OnOB1ExPda-12" target="rUi8ACZ_J-OnOB1ExPda-13">
          <mxGeometry relative="1" as="geometry" />
        </mxCell>
        <mxCell id="rUi8ACZ_J-OnOB1ExPda-12" value="" style="rounded=1;whiteSpace=wrap;html=1;fillColor=none;" vertex="1" parent="1">
          <mxGeometry x="380" y="235" width="290" height="60" as="geometry" />
        </mxCell>
        <mxCell id="rUi8ACZ_J-OnOB1ExPda-13" value="" style="rounded=1;whiteSpace=wrap;html=1;fillColor=none;" vertex="1" parent="1">
          <mxGeometry x="720" y="235" width="140" height="60" as="geometry" />
        </mxCell>
        <mxCell id="rUi8ACZ_J-OnOB1ExPda-23" style="edgeStyle=orthogonalEdgeStyle;rounded=0;orthogonalLoop=1;jettySize=auto;html=1;exitX=0.5;exitY=0;exitDx=0;exitDy=0;entryX=0.5;entryY=1;entryDx=0;entryDy=0;" edge="1" parent="1" source="rUi8ACZ_J-OnOB1ExPda-10" target="rUi8ACZ_J-OnOB1ExPda-10">
          <mxGeometry relative="1" as="geometry">
            <Array as="points">
              <mxPoint x="200" y="200" />
              <mxPoint x="50" y="200" />
              <mxPoint x="50" y="330" />
              <mxPoint x="200" y="330" />
            </Array>
          </mxGeometry>
        </mxCell>
        <mxCell id="rUi8ACZ_J-OnOB1ExPda-26" style="edgeStyle=orthogonalEdgeStyle;rounded=0;orthogonalLoop=1;jettySize=auto;html=1;exitX=0.5;exitY=0;exitDx=0;exitDy=0;entryX=0.5;entryY=1;entryDx=0;entryDy=0;" edge="1" parent="1" source="rUi8ACZ_J-OnOB1ExPda-12" target="rUi8ACZ_J-OnOB1ExPda-12">
          <mxGeometry relative="1" as="geometry">
            <Array as="points">
              <mxPoint x="525" y="200" />
              <mxPoint x="360" y="200" />
              <mxPoint x="360" y="330" />
              <mxPoint x="525" y="330" />
            </Array>
          </mxGeometry>
        </mxCell>
      </root>
    </mxGraphModel>
  </diagram>
</mxfile>
